STARTFONT 2.1
COMMENT
COMMENT Converted from OpenType font "Q:\font stuff\winfont\Yadou.otf" by "otf2bdf 3.0".
COMMENT
FONT -FreeType-Yadou-Medium-R-Normal--52-520-72-72-P-460-ISO10646-1
SIZE 52 72 72
FONTBOUNDINGBOX 104 50 -3 -10
STARTPROPERTIES 19
FOUNDRY "FreeType"
FAMILY_NAME "Yadou"
WEIGHT_NAME "Medium"
SLANT "R"
SETWIDTH_NAME "Normal"
ADD_STYLE_NAME ""
PIXEL_SIZE 52
POINT_SIZE 520
RESOLUTION_X 72
RESOLUTION_Y 72
SPACING "P"
AVERAGE_WIDTH 460
CHARSET_REGISTRY "ISO10646"
CHARSET_ENCODING "1"
FONT_ASCENT 38
FONT_DESCENT 10
COPYRIGHT "-FreeType-Yadou-Medium-R-Normal--52-520-72-72-P-460-ISO10646-1"
_OTF_FONTFILE "Q:\font stuff\winfont\Yadou.otf"
_OTF_PSNAME "Yadou"
ENDPROPERTIES
CHARS 101
STARTCHAR 0020
ENCODING 32
SWIDTH 480 0
DWIDTH 25 0
BBX 0 0 0 0
BITMAP
ENDCHAR
STARTCHAR 0021
ENCODING 33
SWIDTH 365 0
DWIDTH 19 0
BBX 14 40 2 -1
BITMAP
FFFC
E01C
E01C
E01C
E01C
E01C
E01C
E01C
E01C
E01C
E01C
E01C
E01C
E01C
E01C
E01C
E01C
E01C
E01C
E01C
E01C
E01C
E01C
E01C
E01C
FFFC
FFFC
FFFC
FFFC
0000
0000
0000
3FF0
6018
E01C
E01C
FFFC
FFFC
7FF8
3FF0
ENDCHAR
STARTCHAR 0022
ENCODING 34
SWIDTH 711 0
DWIDTH 37 0
BBX 33 13 2 26
BITMAP
3FF007FC00
6018180300
E01C380380
E01C380380
E01C380380
E01C380380
F03C3C0780
F03C1C0700
78781E0F00
7FF81FFF00
3FF00FFE00
1FF007FC00
0FC003F800
ENDCHAR
STARTCHAR 0023
ENCODING 35
SWIDTH 1211 0
DWIDTH 63 0
BBX 59 31 2 4
BITMAP
0003FFF07FFE0000
00038070700E0000
00038070700E0000
00038070700E0000
00038070700E0000
00038070700E0000
FFFF807FF00FFFE0
E0000000000000E0
E0000000000000E0
E0000000000000E0
FFFF807FF00FFFE0
FFFF807FF00FFFE0
FFFF807FF00FFFE0
FFFF807FF00FFFE0
00038070700E0000
FFFF807FF00FFFE0
E0000000000000E0
E0000000000000E0
E0000000000000E0
E0000000000000E0
FFFF807FF00FFFE0
FFFF807FF00FFFE0
FFFF807FF00FFFE0
FFFF807FF00FFFE0
00038070700E0000
00038070700E0000
00038070700E0000
0003FFF07FFE0000
0003FFF07FFE0000
0003FFF07FFE0000
0003FFF07FFE0000
ENDCHAR
STARTCHAR 0024
ENCODING 36
SWIDTH 1153 0
DWIDTH 60 0
BBX 54 40 3 0
BITMAP
00000FFFC00000
00000E01C00000
00000E01C00000
00000E01C00000
00000E01C00000
07FFFE01FFFF80
1C0000000000E0
30000000000030
6003FE01FF0018
600FFE01FFC018
E01FFE01FFE01C
E01FFE01FFE01C
E01E0E01C1E01C
E01C0E01C0FFFC
E01C0E01C0FFFC
E00C0E01C0FFFC
E00F0E01C0FFFC
F003FE01FFFFFC
F8000000000100
7E0000000000E0
7FFFFE01FF0010
3FFFFE01FFC018
0FFFFE01FFE01C
FFFFFE01FFE01C
E01C0E01C1E01C
E01C0E01C0E01C
E01C0E01C0E01C
E00C0E01C0E01C
E007FE01FF801C
F0000E01F0003C
F800000000007C
7F0000000001F8
7FFFFE01FFFFF8
1FFFFE01FFFFF0
0FFFFE01FFFFC0
01FFFE01FFFE00
00000FFFC00000
00000FFFC00000
00000FFFC00000
00000FFFC00000
ENDCHAR
STARTCHAR 0025
ENCODING 37
SWIDTH 1980 0
DWIDTH 103 0
BBX 98 40 3 -1
BITMAP
03FFFFFFF000000FFFF0000000
1E0000000E00001803E0000000
300000000300003007C0000000
6001FFE0018000600F80000000
600FFFFC018000C01F00000000
E01FFFFE01C001803E00000000
E01FFFFE01C003007C00000000
E01FFFFE01C00600F800000000
E01C000E01C00C01F000000000
E01C000E01C01803E000000000
E01C000E01C03007C000000000
E01C000E01C0600F8000000000
E00F807C01C0C01F0000000000
E001FFE001C1803E0000000000
F000000003C3003C0000000000
FC0000001FC6007C0000000000
7FFFFFFFFF8C00F80000000000
7FFFFFFFFF9C01F00000000000
3FFFFFFFFF3803E00000000000
1FFFFFFFFE3007C00000000000
03FFFFFDF0600F83FFFFFFF000
0000000000C01F1F0000001E00
0000000001803E300000000300
0000000003007C600000000180
000000000600F86003FFF00180
000000000C01F0E00FFFFC01C0
000000001803E0E01FFFFE01C0
000000003007C0E01FFFFE01C0
00000000600F80E01E001E01C0
00000000C01F00E01C000E01C0
00000001803F00E01C000E01C0
00000003003E00E01C000E01C0
00000006007C00E00E001C01C0
0000000C00F800F003FFF001C0
0000001801F000F000000007C0
0000003003E0007E0000003F80
0000007FFFC0007FFFFFFFFF80
000000FFFF80003FFFFFFFFF00
000001FFFF00001FFFFFFFFE00
000003FFFE000003FFFFFFF000
ENDCHAR
STARTCHAR 0026
ENCODING 38
SWIDTH 730 0
DWIDTH 38 0
BBX 32 17 3 11
BITMAP
003FFC00
00381C00
00381C00
00381C00
FFF81FFF
E0000007
E0000007
E0000007
FFF81FFF
FFF81FFF
FFF81FFF
FFF81FFF
00381C00
003FFC00
003FFC00
003FFC00
003FFC00
ENDCHAR
STARTCHAR 0027
ENCODING 39
SWIDTH 365 0
DWIDTH 19 0
BBX 14 13 2 26
BITMAP
3FF0
6018
E01C
E01C
E01C
E01C
F03C
F03C
7878
7FF8
3FF0
1FF0
0FC0
ENDCHAR
STARTCHAR 0028
ENCODING 40
SWIDTH 653 0
DWIDTH 34 0
BBX 28 40 3 -1
BITMAP
01FFFFF0
1E000070
30000070
6003FFF0
600FFFF0
E01FFFF0
E01FFFF0
E01E0000
E01C0000
E01C0000
E01C0000
E01C0000
E01C0000
E01C0000
E01C0000
E01C0000
E01C0000
E01C0000
E01C0000
E01C0000
E01C0000
E01C0000
E01C0000
E01C0000
E01C0000
E01C0000
E01C0000
E01C0000
E01C0000
E01C0000
E01C0000
E01C0000
E00E0000
E003FFF0
F0000070
7F000070
7FFFFFF0
3FFFFFF0
1FFFFFF0
00FFFFF0
ENDCHAR
STARTCHAR 0029
ENCODING 41
SWIDTH 653 0
DWIDTH 34 0
BBX 28 40 3 -1
BITMAP
FFFFF800
E0000780
E00000C0
FFFC0060
FFFF0070
FFFF8070
FFFF8070
00078070
00038070
00038070
00038070
00038070
00038070
00038070
00038070
00038070
00038070
00038070
00038070
00038070
00038070
00038070
00038070
00038070
00038070
00038070
00038070
00038070
00038070
00038070
00038070
00038070
00070070
FFFC0070
E00000F0
E0000FE0
FFFFFFE0
FFFFFFC0
FFFFFF80
FFFFF000
ENDCHAR
STARTCHAR 002A
ENCODING 42
SWIDTH 1153 0
DWIDTH 60 0
BBX 58 28 1 7
BITMAP
0000000C00000000
0000003E00000000
0000006380000000
000000C0C0000000
0000018060000000
0000030030000000
0000060018000000
00001C000E000000
003FE00003FF0000
FFC000000000FFC0
FF00000000003FC0
3FC000000000FF00
0FF000000003FC00
07FC0000000FF000
01FE0000001FE000
007F0000003F8000
001F0000003E0000
0006000000380000
0006000000380000
0006000000180000
000600FFC0180000
000E0FFFFC180000
000DFFFFFFFC0000
000FFFFFFFFC0000
000FFF80FFFC0000
000FF80007FC0000
001F0000007C0000
0010000000020000
ENDCHAR
STARTCHAR 002B
ENCODING 43
SWIDTH 730 0
DWIDTH 38 0
BBX 32 17 3 11
BITMAP
003FFC00
00381C00
00381C00
00381C00
FFF81FFF
E0000007
E0000007
E0000007
FFF81FFF
FFF81FFF
FFF81FFF
FFF81FFF
00381C00
003FFC00
003FFC00
003FFC00
003FFC00
ENDCHAR
STARTCHAR 002C
ENCODING 44
SWIDTH 365 0
DWIDTH 19 0
BBX 14 13 2 -5
BITMAP
3FF0
6018
E01C
E01C
E01C
E01C
F03C
F03C
7878
7FF8
3FF0
1FF0
0FC0
ENDCHAR
STARTCHAR 002D
ENCODING 45
SWIDTH 730 0
DWIDTH 38 0
BBX 32 8 3 15
BITMAP
FFFFFFFF
E0000007
E0000007
E0000007
FFFFFFFF
FFFFFFFF
FFFFFFFF
FFFFFFFF
ENDCHAR
STARTCHAR 002E
ENCODING 46
SWIDTH 365 0
DWIDTH 19 0
BBX 14 8 2 0
BITMAP
3FF0
6018
E01C
E01C
FFFC
FFFC
7FF8
3FF0
ENDCHAR
STARTCHAR 002F
ENCODING 47
SWIDTH 923 0
DWIDTH 48 0
BBX 53 40 -3 -1
BITMAP
0000000007FFF8
000000000C01F0
000000001801E0
000000003003E0
000000006007C0
00000000C00F80
00000001801F00
00000003003E00
00000007007C00
0000000E00F800
0000000C01F000
0000001803E000
0000003007C000
000000600F8000
000000C01F0000
000001803E0000
000003003C0000
000006007C0000
00000C00F80000
00001801F00000
00003003E00000
00006007C00000
0000C00F800000
0001801F000000
0003003E000000
0006007C000000
000C00F8000000
001C01F0000000
001803E0000000
003007C0000000
00600780000000
00C00F80000000
01801F00000000
03003E00000000
06007C00000000
0C00F800000000
1FFFF000000000
3FFFE000000000
7FFFC000000000
FFFF8000000000
ENDCHAR
STARTCHAR 0030
ENCODING 48
SWIDTH 1153 0
DWIDTH 60 0
BBX 54 40 3 -1
BITMAP
01FFFFFFFFFE00
1E0000000001E0
30000000000030
6003FFFFFF0018
600FFFFFFFC01C
E01FFFFFFFE01C
E01FFFFFFFE01C
E01E000001E01C
E01C000000E01C
E01C000000E01C
E01C000000E01C
E01C000000E01C
E01C000000E01C
E01C000000E01C
E01C000000E01C
E01C000000E01C
E01C000000E01C
E01C000000E01C
E01C000000E01C
E01C000000E01C
E01C000000E01C
E01C000000E01C
E01C000000E01C
E01C000000E01C
E01C000000E01C
E01C000000E01C
E01C000000E01C
E01C000000E01C
E01C000000E01C
E01C000000E01C
E01C000000E01C
E01C000000E01C
E00E000001C01C
E003FFFFFF001C
F000000000003C
7F0000000001FC
7FFFFFFFFFFFF8
3FFFFFFFFFFFF0
1FFFFFFFFFFFE0
00FFFFFFFFFC00
ENDCHAR
STARTCHAR 0031
ENCODING 49
SWIDTH 576 0
DWIDTH 30 0
BBX 27 40 0 -1
BITMAP
FFFFF000
E0000F00
E0000180
FFFC00C0
FFFE00E0
FFFF00E0
FFFF00E0
000F00E0
000700E0
000700E0
000700E0
000700E0
000700E0
000700E0
000700E0
000700E0
000700E0
000700E0
000700E0
000700E0
000700E0
000700E0
000700E0
000700E0
000700E0
000700E0
000700E0
000700E0
000700E0
000700E0
000700E0
000700E0
000700E0
000700E0
000700E0
000700E0
0007FFE0
0007FFE0
0007FFE0
0007FFE0
ENDCHAR
STARTCHAR 0032
ENCODING 50
SWIDTH 1153 0
DWIDTH 60 0
BBX 55 40 2 -1
BITMAP
01FFFFFFFFFF00
1E0000000000F0
30000000000018
6001FFFFFF800C
6007FFFFFFE00E
E00FFFFFFFF00E
E00FFFFFFFF00E
E00F000000F00E
FFFE000000700E
FFFE000000700E
FFFE000000700E
FFFE000000700E
0000000000700E
0000000000700E
0000000000700E
0000000000600E
0000000000E00E
01FFFFFFFF800E
1F80000000001E
3000000000007C
6001FFFFFFFFFC
E007FFFFFFFFF8
E00FFFFFFFFFF0
E00FFFFFFFFE00
E00E0000000000
E00E0000000000
E00E0000000000
E00E0000000000
E00E0000007FFE
E00E000000700E
E00E000000700E
E00E000000700E
E007000000E00E
E001FFFFFF800E
F000000000001E
7F0000000000FE
7FFFFFFFFFFFFC
3FFFFFFFFFFFF8
1FFFFFFFFFFFF0
00FFFFFFFFFE00
ENDCHAR
STARTCHAR 0033
ENCODING 51
SWIDTH 1153 0
DWIDTH 60 0
BBX 55 40 3 -1
BITMAP
01FFFFFFFFFF00
1E0000000000F0
30000000000018
6003FFFFFF000C
600FFFFFFFC00C
E01FFFFFFFE00E
E01FFFFFFFE00E
E01E000001E00E
FFFC000000E00E
FFFC000000E00E
FFFC000000E00E
FFFC000000E00E
0000000000E00E
0000000000E00E
0000000000E00E
0000000001C01E
00003FFFFF803E
000038000003FE
0000380000FFFC
000038000007F8
00003FFFFF8070
00003FFFFFC018
00003FFFFFE00C
00003FFFFFE00E
0000000001E00E
0000000000E00E
0000000000E00E
0000000000E00E
FFFC000000E00E
E01C000000E00E
E01C000000E00E
E01C000000E00E
E00F800003C00E
E001FFFFFE000E
F000000000001E
7F0000000001FC
7FFFFFFFFFFFFC
3FFFFFFFFFFFF8
1FFFFFFFFFFFF0
00FFFFFFFFFE00
ENDCHAR
STARTCHAR 0034
ENCODING 52
SWIDTH 1153 0
DWIDTH 60 0
BBX 54 40 3 -1
BITMAP
FFFC000000FFFC
E01C000000E01C
E01C000000E01C
E01C000000E01C
E01C000000E01C
E01C000000E01C
E01C000000E01C
E01C000000E01C
E01C000000E01C
E01C000000E01C
E01C000000E01C
E01C000000E01C
E01C000000E01C
E01C000000E01C
E01C000000E01C
E00E000000C01C
E003FFFFFF807C
E00000000003FC
F0000000007FF8
7E000000000FF0
7FFFFFFFFF00E0
3FFFFFFFFFC038
1FFFFFFFFFE01C
00FFFFFFFFE01C
0000000001E01C
0000000000E01C
0000000000E01C
0000000000E01C
0000000000E01C
0000000000E01C
0000000000E01C
0000000000E01C
0000000000E01C
0000000000E01C
0000000000E01C
0000000000E01C
0000000000FFFC
0000000000FFFC
0000000000FFFC
0000000000FFFC
ENDCHAR
STARTCHAR 0035
ENCODING 53
SWIDTH 1153 0
DWIDTH 60 0
BBX 54 40 3 0
BITMAP
03FFFFFFFFFF80
1C0000000000E0
30000000000038
6003FFFFFF8018
E00FFFFFFFC01C
E01FFFFFFFE01C
E01FFFFFFFE01C
E01E000001E01C
E01C000000FFFC
E01C000000FFFC
E01C000000FFFC
E01C000000FFFC
E01C0000000000
E01C0000000000
E01C0000000000
E00C0000000000
E00F0000000000
E003FFFFFFFF80
F00000000001F0
7E000000000038
7FFFFFFFFF0018
3FFFFFFFFFC01C
1FFFFFFFFFE01C
00FFFFFFFFE01C
0000000001E01C
0000000000E01C
0000000000E01C
0000000000E01C
FFFC000000E01C
E01C000000E01C
E01C000000E01C
E01C000000E01C
E00F800003C01C
E001FFFFFE001C
F000000000003C
FF0000000001FC
7FFFFFFFFFFFF8
3FFFFFFFFFFFF0
1FFFFFFFFFFFE0
01FFFFFFFFFC00
ENDCHAR
STARTCHAR 0036
ENCODING 54
SWIDTH 1153 0
DWIDTH 60 0
BBX 54 40 3 -1
BITMAP
01FFFFFFFFFE00
1E0000000001E0
30000000000030
6003FFFFFF8018
600FFFFFFFC01C
E01FFFFFFFE01C
E01FFFFFFFE01C
E01E000001E01C
E01C000000FFFC
E01C000000FFFC
E01C000000FFFC
E01C000000FFFC
E01C0000000000
E01C0000000000
E01C0000000000
E01C0000000000
E01C0000000000
E01FFFFFFFFF80
E00000000000F0
E0000000000038
E01FFFFFFF8018
E01FFFFFFFC01C
E01FFFFFFFE01C
E01FFFFFFFE01C
E01C000000E01C
E01C000000E01C
E01C000000E01C
E01C000000E01C
E01C000000E01C
E01C000000E01C
E01C000000E01C
E01C000000E01C
E00FC00007C01C
E001FFFFFE001C
F000000000003C
7F0000000001FC
7FFFFFFFFFFFF8
3FFFFFFFFFFFF0
1FFFFFFFFFFFE0
00FFFFFFFFFC00
ENDCHAR
STARTCHAR 0037
ENCODING 55
SWIDTH 1153 0
DWIDTH 60 0
BBX 54 40 3 -1
BITMAP
01FFFFFFFFFFFC
1E00000000001C
3000000000001C
6003FFFFFFE01C
600FFFFFFFC01C
E00FFFFFFF803C
E01FFFFFFF007C
E01E00000600F8
FFFC00000C01F8
FFFC00001801F0
FFFC00003003E0
FFFC00006007C0
00000000E00F80
00000001C01F00
00000001803E00
00000003007C00
0000000600F800
0000000C01F000
0000001803E000
0000003003E000
0000006007C000
000000C00F8000
000001801F0000
000003003E0000
000007007C0000
00000600F80000
00000C01F00000
00001803E00000
00003007C00000
00006007C00000
0000C00F800000
0001801F000000
0003003E000000
0006007C000000
000C00F8000000
001C01F0000000
003FFFE0000000
003FFFC0000000
007FFF80000000
00FFFF00000000
ENDCHAR
STARTCHAR 0038
ENCODING 56
SWIDTH 1153 0
DWIDTH 60 0
BBX 54 40 3 -1
BITMAP
01FFFFFFFFFE00
1E0000000001E0
30000000000030
6003FFFFFF0018
600FFFFFFFC01C
E01FFFFFFFE01C
E01FFFFFFFE01C
E01E000001E01C
E01C000000E01C
E01C000000E01C
E01C000000E01C
E01C000000E01C
E01C000000E01C
E01C000000E01C
E01C000000E01C
F00E000000C03C
FC03FFFFFF80FC
FF8000000007FC
7FFC000000FFF8
1F0000000003E0
3807FFFFFF8070
600FFFFFFFE018
E01FFFFFFFE01C
E01FFFFFFFE01C
E01C000000E01C
E01C000000E01C
E01C000000E01C
E01C000000E01C
E01C000000E01C
E01C000000E01C
E01C000000E01C
E01C000000E01C
E00E000000C01C
E003FFFFFF001C
F000000000003C
7F0000000001FC
7FFFFFFFFFFFF8
3FFFFFFFFFFFF0
1FFFFFFFFFFFE0
00FFFFFFFFFC00
ENDCHAR
STARTCHAR 0039
ENCODING 57
SWIDTH 1153 0
DWIDTH 60 0
BBX 54 40 3 -1
BITMAP
01FFFFFFFFFE00
1E0000000001E0
30000000000030
6003FFFFFF0018
600FFFFFFFC01C
E01FFFFFFFE01C
E01FFFFFFFE01C
E01F80000FE01C
E01C000000E01C
E01C000000E01C
E01C000000E01C
E01C000000E01C
E01C000000E01C
E01C000000E01C
E01C000000E01C
E00C000000E01C
E007FFFFFFE01C
F000000000001C
FC00000000001C
7FFFFFFFFFE01C
7FFFFFFFFFE01C
3FFFFFFFFFE01C
07FFFFFFFFE01C
0000000000E01C
0000000000E01C
0000000000E01C
0000000000E01C
0000000000E01C
FFFC000000E01C
E01C000000E01C
E01C000000E01C
E01C000000E01C
E00E000001C01C
E003FFFFFF001C
F000000000003C
FE0000000001FC
7FFFFFFFFFFFF8
3FFFFFFFFFFFF0
1FFFFFFFFFFFE0
01FFFFFFFFFC00
ENDCHAR
STARTCHAR 003A
ENCODING 58
SWIDTH 365 0
DWIDTH 19 0
BBX 14 23 2 0
BITMAP
3FF0
6018
E01C
E01C
FFFC
FFFC
7FF8
3FF0
0000
0000
0000
0000
0000
0000
0000
3FF0
6018
E01C
E01C
FFFC
FFFC
7FF8
3FF0
ENDCHAR
STARTCHAR 003B
ENCODING 59
SWIDTH 365 0
DWIDTH 19 0
BBX 14 28 2 -5
BITMAP
3FF0
6018
E01C
E01C
FFFC
FFFC
7FF8
3FF0
0000
0000
0000
0000
0000
0000
0000
3FF0
6018
E01C
E01C
E01C
E01C
F03C
F03C
7878
7FF8
3FF0
1FF0
0FC0
ENDCHAR
STARTCHAR 003C
ENCODING 60
SWIDTH 615 0
DWIDTH 32 0
BBX 23 18 4 9
BITMAP
000080
0003E0
000E78
0039FE
00E7FC
039FF0
0E7FC0
38FF00
FE3C00
FF8C00
3FE300
0FF8C0
03FE30
00FFFC
003FFE
000FF8
0003E0
000080
ENDCHAR
STARTCHAR 003D
ENCODING 61
SWIDTH 730 0
DWIDTH 38 0
BBX 32 16 3 11
BITMAP
FFFFFFFF
E0000007
E0000007
E0000007
FFFFFFFF
FFFFFFFF
FFFFFFFF
FFFFFFFF
00000000
FFFFFFFF
E0000007
E0000007
FFFFFFFF
FFFFFFFF
FFFFFFFF
FFFFFFFF
ENDCHAR
STARTCHAR 003E
ENCODING 62
SWIDTH 615 0
DWIDTH 32 0
BBX 22 17 6 9
BITMAP
020000
0F0000
38C000
FE3000
FF8C00
3FE300
0FF8C0
03FE70
00F9FC
00E7FC
039FF0
0E7FC0
39FF00
FFFC00
FFF000
3FC000
0F0000
ENDCHAR
STARTCHAR 003F
ENCODING 63
SWIDTH 1153 0
DWIDTH 60 0
BBX 54 40 3 -1
BITMAP
01FFFFFFFFFE00
1E0000000001E0
30000000000030
6003FFFFFF0018
600FFFFFFFC01C
E00FFFFFFFE01C
E01FFFFFFFE01C
E01E000001E01C
FFFC000000E01C
FFFC000000E01C
FFFC000000E01C
FFFC000000E01C
0000000000E01C
0000000000E01C
0000000000E01C
0000000000C01C
000003FFFF801C
00001C0000001C
0000300000001C
0000600000007C
00006003FFFFF8
0000E00FFFFFF8
0000E01FFFFFE0
0000E01FFFFF00
0000E01E000000
0000FFFC000000
0000FFFC000000
0000FFFC000000
0000FFFC000000
00000000000000
00000000000000
00001FE0000000
00007038000000
0000E01C000000
0000E01C000000
0000F01C000000
0000FFFC000000
0000FFFC000000
00007FF8000000
00003FF0000000
ENDCHAR
STARTCHAR 0040
ENCODING 64
SWIDTH 1288 0
DWIDTH 67 0
BBX 61 40 3 -1
BITMAP
01FFFFFFFFFFFC00
1E000000000003C0
3000000000000060
6003FFFFFFFC0030
600FFFFFFFFF8030
E01FFFFFFFFFC038
E01FFFFFFFFFC038
E01F8000001FC038
E01C00000001C038
E01C1FFFFFF1C038
E01C60000019C038
E01CE000001DC038
E01CE000001DC038
E01CE00FE01DC038
E01CE01FF01DC038
E01CE03FF81DC038
E01CE03FF81DC038
E01CE038381DC038
E01CE038381DC038
E01CE038381DC038
E01CE038381DC038
E01CE038381DC038
E01CE038381DC038
E01CE018381D8038
E01CE00FF81F0038
E01CE00000000078
E01CE000000001F0
E01CFFFFFFFFFFF0
E01CFFFFFFFFFFE0
E01C7FFFFFFFFFC0
E01C1FFFFFFFFFF8
E01C00000001C038
E00E000000038038
E003FFFFFFFE0038
F000000000000078
FF000000000007F0
7FFFFFFFFFFFFFF0
3FFFFFFFFFFFFFE0
1FFFFFFFFFFFFFC0
00FFFFFFFFFFF800
ENDCHAR
STARTCHAR 0041
ENCODING 65
SWIDTH 1153 0
DWIDTH 60 0
BBX 54 40 3 -1
BITMAP
01FFFFFFFFFE00
1E0000000001E0
30000000000030
6003FFFFFF0018
600FFFFFFFC01C
E01FFFFFFFE01C
E01FFFFFFFE01C
E01E000001E01C
E01C000000E01C
E01C000000E01C
E01C000000E01C
E01C000000E01C
E01C000000E01C
E01C000000E01C
E01C000000E01C
E01C000000E01C
E01FFFFFFFE01C
E000000000001C
E000000000001C
E000000000001C
E01FFFFFFFE01C
E01FFFFFFFE01C
E01FFFFFFFE01C
E01FFFFFFFE01C
E01C000000E01C
E01C000000E01C
E01C000000E01C
E01C000000E01C
E01C000000E01C
E01C000000E01C
E01C000000E01C
E01C000000E01C
E01C000000E01C
E01C000000E01C
E01C000000E01C
E01C000000E01C
FFFC000000FFFC
FFFC000000FFFC
FFFC000000FFFC
FFFC000000FFFC
ENDCHAR
STARTCHAR 0042
ENCODING 66
SWIDTH 1153 0
DWIDTH 60 0
BBX 54 40 3 -1
BITMAP
FFFFFFFFFFFE00
E00000000001E0
E0000000000030
E01FFFFFFF0018
E01FFFFFFFC01C
E01FFFFFFFE01C
E01FFFFFFFE01C
E01C000001E01C
E01C000000E01C
E01C000000E01C
E01C000000E01C
E01C000000E01C
E01C000000E01C
E01C000000E01C
E01C000000E01C
E01C000001C01C
E01FFFFFFF807C
E00000000003FC
E0000000001FF8
E00000000001E0
E01FFFFFFF8070
E01FFFFFFFE018
E01FFFFFFFE01C
E01FFFFFFFE01C
E01C000000E01C
E01C000000E01C
E01C000000E01C
E01C000000E01C
E01C000000E01C
E01C000000E01C
E01C000000E01C
E01C000000E01C
E01C000000C01C
E01FFFFFFF001C
E000000000003C
E00000000001FC
FFFFFFFFFFFFF8
FFFFFFFFFFFFF0
FFFFFFFFFFFFE0
FFFFFFFFFFFC00
ENDCHAR
STARTCHAR 0043
ENCODING 67
SWIDTH 1153 0
DWIDTH 60 0
BBX 54 40 3 -1
BITMAP
01FFFFFFFFFE00
1E0000000001E0
30000000000030
6003FFFFFF8018
600FFFFFFFC01C
E01FFFFFFFE01C
E01FFFFFFFE01C
E01E000001E01C
E01C000000FFFC
E01C000000FFFC
E01C000000FFFC
E01C000000FFFC
E01C0000000000
E01C0000000000
E01C0000000000
E01C0000000000
E01C0000000000
E01C0000000000
E01C0000000000
E01C0000000000
E01C0000000000
E01C0000000000
E01C0000000000
E01C0000000000
E01C0000000000
E01C0000000000
E01C0000000000
E01C0000000000
E01C000000FFFC
E01C000000E01C
E01C000000E01C
E01C000000E01C
E00E000000C01C
E003FFFFFF801C
F000000000003C
7F0000000001FC
7FFFFFFFFFFFF8
3FFFFFFFFFFFF0
1FFFFFFFFFFFE0
00FFFFFFFFFC00
ENDCHAR
STARTCHAR 0044
ENCODING 68
SWIDTH 1153 0
DWIDTH 60 0
BBX 54 40 3 -1
BITMAP
FFFFFFFFFFFE00
E00000000001E0
E0000000000030
E01FFFFFFF0018
E01FFFFFFFC01C
E01FFFFFFFE01C
E01FFFFFFFE01C
E01C000001E01C
E01C000000E01C
E01C000000E01C
E01C000000E01C
E01C000000E01C
E01C000000E01C
E01C000000E01C
E01C000000E01C
E01C000000E01C
E01C000000E01C
E01C000000E01C
E01C000000E01C
E01C000000E01C
E01C000000E01C
E01C000000E01C
E01C000000E01C
E01C000000E01C
E01C000000E01C
E01C000000E01C
E01C000000E01C
E01C000000E01C
E01C000000E01C
E01C000000E01C
E01C000000E01C
E01C000000E01C
E01FFFFFFFC01C
E01FFFFFFF001C
E000000000003C
E00000000001FC
FFFFFFFFFFFFF8
FFFFFFFFFFFFF0
FFFFFFFFFFFFE0
FFFFFFFFFFFC00
ENDCHAR
STARTCHAR 0045
ENCODING 69
SWIDTH 1153 0
DWIDTH 60 0
BBX 54 40 3 0
BITMAP
03FFFFFFFFFF80
1C0000000000E0
30000000000038
6003FFFFFF8018
600FFFFFFFC01C
E01FFFFFFFE01C
E01FFFFFFFE01C
E01E000001E01C
E01C000000FFFC
E01C000000FFFC
E01C000000FFFC
E01C000000FFFC
E01C0000000000
E01C0000000000
E01C0000000000
E00C0000000000
F807FFFFF80000
FF000000380000
7FF00000380000
3FE80000380000
1C07FFFFF80000
600FFFFFF80000
601FFFFFF80000
E01FFFFFF80000
E01C0000000000
E01C0000000000
E01C0000000000
E01C0000000000
E01C000000FFFC
E01C000000E01C
E01C000000E01C
E01C000000E01C
E00E000000C01C
E003FFFFFF001C
F000000000003C
FE0000000001FC
7FFFFFFFFFFFF8
3FFFFFFFFFFFF0
1FFFFFFFFFFFE0
01FFFFFFFFFC00
ENDCHAR
STARTCHAR 0046
ENCODING 70
SWIDTH 1153 0
DWIDTH 60 0
BBX 54 40 3 -1
BITMAP
01FFFFFFFFFE00
1E0000000001E0
30000000000030
6003FFFFFF0018
600FFFFFFFC01C
E01FFFFFFFE01C
E01FFFFFFFE01C
E01E000001E01C
E01C000000FFFC
E01C000000FFFC
E01C000000FFFC
E01C000000FFFC
E01C0000000000
E01C0000000000
E01C0000000000
E00E0000000000
F807FFFFF80000
FF000000380000
7FF00000380000
3FC80000380000
1807FFFFF80000
600FFFFFF80000
601FFFFFF80000
E01FFFFFF80000
E01C0000000000
E01C0000000000
E01C0000000000
E01C0000000000
E01C0000000000
E01C0000000000
E01C0000000000
E01C0000000000
E01C0000000000
E01C0000000000
E01C0000000000
E01C0000000000
FFFC0000000000
FFFC0000000000
FFFC0000000000
FFFC0000000000
ENDCHAR
STARTCHAR 0047
ENCODING 71
SWIDTH 1153 0
DWIDTH 60 0
BBX 54 40 3 0
BITMAP
03FFFFFFFFFF80
1C0000000000E0
30000000000038
6003FFFFFF8018
E00FFFFFFFC01C
E01FFFFFFFE01C
E01FFFFFFFE01C
E01E000001E01C
E01C000000FFFC
E01C000000FFFC
E01C000000FFFC
E01C000000FFFC
E01C0000000000
E01C0000000000
E01C0000000000
E01C0000000000
E01C0000000000
E01C1FFFFFFF80
E01C1C000001F0
E01C1C00000038
E01C1FFFFF0018
E01C1FFFFFC01C
E01C1FFFFFE01C
E01C1FFFFFE01C
E01C000001E01C
E01C000000E01C
E01C000000E01C
E01C000000E01C
E01C000000E01C
E01C000000E01C
E01C000000E01C
E01C000000E01C
E00F800003C01C
E001FFFFFE001C
F000000000003C
7F0000000001FC
7FFFFFFFFFFFF8
3FFFFFFFFFFFF0
1FFFFFFFFFFFE0
00FFFFFFFFFC00
ENDCHAR
STARTCHAR 0048
ENCODING 72
SWIDTH 1153 0
DWIDTH 60 0
BBX 54 40 3 -1
BITMAP
FFFC000000FFFC
E01C000000E01C
E01C000000E01C
E01C000000E01C
E01C000000E01C
E01C000000E01C
E01C000000E01C
E01C000000E01C
E01C000000E01C
E01C000000E01C
E01C000000E01C
E01C000000E01C
E01C000000E01C
E01C000000E01C
E01C000000E01C
E01C000000E01C
E01FFFFFFFE01C
E000000000001C
E000000000001C
E000000000001C
E01FFFFFFFE01C
E01FFFFFFFE01C
E01FFFFFFFE01C
E01FFFFFFFE01C
E01C000000E01C
E01C000000E01C
E01C000000E01C
E01C000000E01C
E01C000000E01C
E01C000000E01C
E01C000000E01C
E01C000000E01C
E01C000000E01C
E01C000000E01C
E01C000000E01C
E01C000000E01C
FFFC000000FFFC
FFFC000000FFFC
FFFC000000FFFC
FFFC000000FFFC
ENDCHAR
STARTCHAR 0049
ENCODING 73
SWIDTH 365 0
DWIDTH 19 0
BBX 14 40 3 -1
BITMAP
FFFC
E01C
E01C
E01C
E01C
E01C
E01C
E01C
E01C
E01C
E01C
E01C
E01C
E01C
E01C
E01C
E01C
E01C
E01C
E01C
E01C
E01C
E01C
E01C
E01C
E01C
E01C
E01C
E01C
E01C
E01C
E01C
E01C
E01C
E01C
E01C
FFFC
FFFC
FFFC
FFFC
ENDCHAR
STARTCHAR 004A
ENCODING 74
SWIDTH 1153 0
DWIDTH 60 0
BBX 54 40 3 -1
BITMAP
0000000000FFFC
0000000000E01C
0000000000E01C
0000000000E01C
0000000000E01C
0000000000E01C
0000000000E01C
0000000000E01C
0000000000E01C
0000000000E01C
0000000000E01C
0000000000E01C
0000000000E01C
0000000000E01C
0000000000E01C
0000000000E01C
0000000000E01C
0000000000E01C
0000000000E01C
0000000000E01C
0000000000E01C
0000000000E01C
0000000000E01C
0000000000E01C
0000000000E01C
0000000000E01C
0000000000E01C
0000000000E01C
FFFC000000E01C
E01C000000E01C
E01C000000E01C
E01C000000E01C
E00E000000C01C
E003FFFFFF001C
F000000000003C
FE0000000001FC
7FFFFFFFFFFFF8
3FFFFFFFFFFFF0
1FFFFFFFFFFFE0
01FFFFFFFFFC00
ENDCHAR
STARTCHAR 004B
ENCODING 75
SWIDTH 1153 0
DWIDTH 60 0
BBX 54 40 3 -1
BITMAP
FFFC000000FFFC
E01C000000E01C
E01C000000E01C
E01C000000E01C
E01C000000E01C
E01C000000E01C
E01C000000E01C
E01C000000E01C
E01C000000E01C
E01C000000E01C
E01C000000E01C
E01C000000E01C
E01C000000E01C
E01C000000E01C
E01C000000E01C
E01C000000C01C
E01FFFFFFF803C
E00000000001FC
E0000000007FF8
E00000000003F8
E01FFFFFFF8030
E01FFFFFFFC018
E01FFFFFFFE01C
E01FFFFFFFE01C
E01C000001E01C
E01C000000E01C
E01C000000E01C
E01C000000E01C
E01C000000E01C
E01C000000E01C
E01C000000E01C
E01C000000E01C
E01C000000E01C
E01C000000E01C
E01C000000E01C
E01C000000E01C
FFFC000000FFFC
FFFC000000FFFC
FFFC000000FFFC
FFFC000000FFFC
ENDCHAR
STARTCHAR 004C
ENCODING 76
SWIDTH 1153 0
DWIDTH 60 0
BBX 54 40 3 -1
BITMAP
FFFC0000000000
E01C0000000000
E01C0000000000
E01C0000000000
E01C0000000000
E01C0000000000
E01C0000000000
E01C0000000000
E01C0000000000
E01C0000000000
E01C0000000000
E01C0000000000
E01C0000000000
E01C0000000000
E01C0000000000
E01C0000000000
E01C0000000000
E01C0000000000
E01C0000000000
E01C0000000000
E01C0000000000
E01C0000000000
E01C0000000000
E01C0000000000
E01C0000000000
E01C0000000000
E01C0000000000
E01C0000000000
E01C000000FFFC
E01C000000E01C
E01C000000E01C
E01C000000E01C
E00E000000C01C
E003FFFFFF001C
F000000000003C
7F0000000001FC
7FFFFFFFFFFFF8
3FFFFFFFFFFFF0
1FFFFFFFFFFFE0
00FFFFFFFFFC00
ENDCHAR
STARTCHAR 004D
ENCODING 77
SWIDTH 1750 0
DWIDTH 91 0
BBX 85 40 3 -1
BITMAP
FFFF00000000000003FFF8
E003800000000000060038
E0018000000000000C0038
E000C00000000000180038
E000600000000000300038
E000300000000000600038
E000180000000000C00038
E0000C0000000001C00038
E0100E0000000001804038
E01806000000000300C038
E01C03000000000600C038
E01E01800000000C01C038
E01E00C00000001803C038
E01F00600000003007C038
E01F8030000000600FC038
E01FC018000000E01FC038
E01FE01C000000C03FC038
E01DF00C000001807DC038
E01CF80600000300F9C038
E01C780300000600F1C038
E01C3C0180000C01E1C038
E01C1E00C0001803C1C038
E01C1F0060003007C1C038
E01C0F803000300F81C038
E01C07C03800601F01C038
E01C03E01800C03E01C038
E01C01F00C01807C01C038
E01C00F0060300F801C038
E01C0078030600F001C038
E01C007C018C01E001C038
E01C003E00D803E001C038
E01C001F007807C001C038
E01C000F80700F8001C038
E01C0007C0201F0001C038
E01C0003E0003E0001C038
E01C0001E0007C0001C038
FFFC0001FFFFF80001FFF8
FFFC0000FFFFF00001FFF8
FFFC00007FFFF00001FFF8
FFFC00003FFFE00001FFF8
ENDCHAR
STARTCHAR 004E
ENCODING 78
SWIDTH 1153 0
DWIDTH 60 0
BBX 54 40 3 -1
BITMAP
FFFC000000FFFC
E006000000E01C
E003000000E01C
E001800000E01C
E000C00000E01C
E000600000E01C
E000380000E01C
E0001C0000E01C
E000060000E01C
E018030000E01C
E01C018000E01C
E01E00C000E01C
E01F006000E01C
E01F803800E01C
E01FC00C00E01C
E01FE00600E01C
E01DF00300E01C
E01CFC0180E01C
E01C7E00C0E01C
E01C3F0060E01C
E01C1F8018E01C
E01C07C00CE01C
E01C03E006E01C
E01C01F003E01C
E01C00F801E01C
E01C007E00E01C
E01C003F00601C
E01C001F80001C
E01C000FC0001C
E01C0007E0001C
E01C0001F0001C
E01C0000F8001C
E01C00007C001C
E01C00003F001C
E01C00001F801C
E01C00000FC01C
FFFC000007FFFC
FFFC000003FFFC
FFFC000001FFFC
FFFC000000FFFC
ENDCHAR
STARTCHAR 004F
ENCODING 79
SWIDTH 1153 0
DWIDTH 60 0
BBX 54 40 3 -1
BITMAP
01FFFFFFFFFE00
1E0000000001E0
30000000000030
6003FFFFFF0018
600FFFFFFFC01C
E01FFFFFFFE01C
E01FFFFFFFE01C
E01E000001E01C
E01C000000E01C
E01C000000E01C
E01C000000E01C
E01C000000E01C
E01C000000E01C
E01C000000E01C
E01C000000E01C
E01C000000E01C
E01C000000E01C
E01C000000E01C
E01C000000E01C
E01C000000E01C
E01C000000E01C
E01C000000E01C
E01C000000E01C
E01C000000E01C
E01C000000E01C
E01C000000E01C
E01C000000E01C
E01C000000E01C
E01C000000E01C
E01C000000E01C
E01C000000E01C
E01C000000E01C
E00E000001C01C
E003FFFFFF001C
F000000000003C
7F0000000001FC
7FFFFFFFFFFFF8
3FFFFFFFFFFFF0
1FFFFFFFFFFFE0
00FFFFFFFFFC00
ENDCHAR
STARTCHAR 0050
ENCODING 80
SWIDTH 1153 0
DWIDTH 60 0
BBX 54 40 3 -1
BITMAP
01FFFFFFFFFE00
1E0000000001E0
30000000000030
6003FFFFFF0018
600FFFFFFFC01C
E01FFFFFFFE01C
E01FFFFFFFE01C
E01E000001E01C
E01C000000E01C
E01C000000E01C
E01C000000E01C
E01C000000E01C
E01C000000E01C
E01C000000E01C
E01C000000E01C
E00E000001C01C
F803FFFFFF801C
FF80000000001C
7FFC000000003C
3F8000000000F8
1803FFFFFFFFF8
600FFFFFFFFFF0
601FFFFFFFFFE0
E01FFFFFFFFC00
E01C0000000000
E01C0000000000
E01C0000000000
E01C0000000000
E01C0000000000
E01C0000000000
E01C0000000000
E01C0000000000
E01C0000000000
E01C0000000000
E01C0000000000
E01C0000000000
FFFC0000000000
FFFC0000000000
FFFC0000000000
FFFC0000000000
ENDCHAR
STARTCHAR 0051
ENCODING 81
SWIDTH 1153 0
DWIDTH 60 0
BBX 54 48 3 -9
BITMAP
01FFFFFFFFFE00
1E0000000001E0
30000000000030
6003FFFFFF0018
600FFFFFFFC01C
E01FFFFFFFE01C
E01FFFFFFFE01C
E01E000001E01C
E01C000000E01C
E01C000000E01C
E01C000000E01C
E01C000000E01C
E01C000000E01C
E01C000000E01C
E01C000000E01C
E01C000000E01C
E01C000000E01C
E01C000000E01C
E01C000000E01C
E01C000000E01C
E01C000000E01C
E01C000000E01C
E01C000000E01C
E01C000000E01C
E01C000000E01C
E01C000000E01C
E01C000000E01C
E01C000000E01C
E01C000000E01C
E01C000000E01C
E01C000000E01C
E01C000000E01C
E00E000001C01C
E003FFFFFF001C
F000000000003C
7F0000000001FC
7FFFFE01FFFFF8
3FFFFE01FFFFF0
1FFFFE01FFFFE0
00FFFE01FFFC00
00000E01C00000
00000E01C00000
00000E01C00000
00000E01C00000
00000FFFC00000
00000FFFC00000
00000FFFC00000
00000FFFC00000
ENDCHAR
STARTCHAR 0052
ENCODING 82
SWIDTH 1153 0
DWIDTH 60 0
BBX 54 40 3 -1
BITMAP
01FFFFFFFFFE00
1E0000000001E0
30000000000030
6003FFFFFF0018
600FFFFFFFC01C
E01FFFFFFFE01C
E01FFFFFFFE01C
E01C000001E01C
E01C000000E01C
E01C000000E01C
E01C000000E01C
E01C000000E01C
E01C000000E01C
E01C000000E01C
E01C000000E01C
E01C000001C01C
E01FFFFFFF007C
E00000000007FC
E0000000007FF8
E00000000007F0
E01FFFFFFF0060
E01FFFFFFFC018
E01FFFFFFFE01C
E01FFFFFFFE01C
E01C000001E01C
E01C000000E01C
E01C000000E01C
E01C000000E01C
E01C000000E01C
E01C000000E01C
E01C000000E01C
E01C000000E01C
E01C000000E01C
E01C000000E01C
E01C000000E01C
E01C000000E01C
FFFC000000FFFC
FFFC000000FFFC
FFFC000000FFFC
FFFC000000FFFC
ENDCHAR
STARTCHAR 0053
ENCODING 83
SWIDTH 1153 0
DWIDTH 60 0
BBX 54 40 3 0
BITMAP
03FFFFFFFFFF80
1C0000000000E0
30000000000038
6003FFFFFF8018
E00FFFFFFFC01C
E01FFFFFFFE01C
E01FFFFFFFE01C
E01E000001E01C
E01C000000FFFC
E01C000000FFFC
E01C000000FFFC
E01C000000FFFC
E01C0000000000
E01C0000000000
E01C0000000000
E00C0000000000
E00F0000000000
E003FFFFFFFF80
F00000000001F0
7E000000000038
7FFFFFFFFF0018
3FFFFFFFFFC01C
1FFFFFFFFFE01C
00FFFFFFFFE01C
0000000001E01C
0000000000E01C
0000000000E01C
0000000000E01C
FFFC000000E01C
E01C000000E01C
E01C000000E01C
E01C000000E01C
E00F800003C01C
E001FFFFFE001C
F000000000003C
FF0000000001FC
7FFFFFFFFFFFF8
3FFFFFFFFFFFF0
1FFFFFFFFFFFE0
01FFFFFFFFFC00
ENDCHAR
STARTCHAR 0054
ENCODING 84
SWIDTH 1153 0
DWIDTH 60 0
BBX 54 40 3 -1
BITMAP
01FFFFFFFFFE00
1E0000000001E0
30000000000030
6003FE01FF0018
600FFE01FFC01C
E00FFE01FFE01C
E01FFE01FFE01C
E01E0E01C1E01C
FFFC0E01C0FFFC
FFFC0E01C0FFFC
FFFC0E01C0FFFC
FFFC0E01C0FFFC
00000E01C00000
00000E01C00000
00000E01C00000
00000E01C00000
00000E01C00000
00000E01C00000
00000E01C00000
00000E01C00000
00000E01C00000
00000E01C00000
00000E01C00000
00000E01C00000
00000E01C00000
00000E01C00000
00000E01C00000
00000E01C00000
00000E01C00000
00000E01C00000
00000E01C00000
00000E01C00000
00000E01C00000
00000E01C00000
00000E01C00000
00000E01C00000
00000FFFC00000
00000FFFC00000
00000FFFC00000
00000FFFC00000
ENDCHAR
STARTCHAR 0055
ENCODING 85
SWIDTH 1153 0
DWIDTH 60 0
BBX 54 40 3 -1
BITMAP
FFFC000000FFFC
E01C000000E01C
E01C000000E01C
E01C000000E01C
E01C000000E01C
E01C000000E01C
E01C000000E01C
E01C000000E01C
E01C000000E01C
E01C000000E01C
E01C000000E01C
E01C000000E01C
E01C000000E01C
E01C000000E01C
E01C000000E01C
E01C000000E01C
E01C000000E01C
E01C000000E01C
E01C000000E01C
E01C000000E01C
E01C000000E01C
E01C000000E01C
E01C000000E01C
E01C000000E01C
E01C000000E01C
E01C000000E01C
E01C000000E01C
E01C000000E01C
E01C000000E01C
E01C000000E01C
E01C000000E01C
E01C000000E01C
E00E000001C01C
E003FFFFFF001C
F000000000003C
7F0000000001FC
7FFFFFFFFFFFF8
3FFFFFFFFFFFF0
1FFFFFFFFFFFE0
01FFFFFFFFFC00
ENDCHAR
STARTCHAR 0056
ENCODING 86
SWIDTH 1153 0
DWIDTH 60 0
BBX 56 40 2 -1
BITMAP
FFFF000000FFFF
7801800001801E
7801800001801E
3C00C00003803C
3C00E00003003C
1E006000070078
0F007000060078
0F0030000600F0
078018000C00F0
078018000C01E0
03C00C001801C0
03C00C001803C0
01E00600300380
00F00600300780
00F00300600700
00780300600F00
00780180C00E00
003C01C0C01E00
003C00C1C01C00
001E00E1803C00
000F0063803800
000F0073007800
0007803300F000
0007801E00F000
0003C01E01E000
0003C00C01E000
0001E00C03C000
0000F00003C000
0000F000078000
00007800078000
000078000F0000
00003C000F0000
00001C001E0000
00001E001E0000
00000F003C0000
00000F00380000
000007FFF80000
000007FFF00000
000003FFF00000
000001FFE00000
ENDCHAR
STARTCHAR 0057
ENCODING 87
SWIDTH 1923 0
DWIDTH 100 0
BBX 95 40 3 -1
BITMAP
FFFC000000FFFC000000FFFE
E01C000000E01C000000E00E
E01C000000E01C000000E00E
E01C000000E01C000000E00E
E01C000000E01C000000E00E
E01C000000E01C000000E00E
E01C000000E01C000000E00E
E01C000000E01C000000E00E
E01C000000E01C000000E00E
E01C000000E01C000000E00E
E01C000000E01C000000E00E
E01C000000E01C000000E00E
E01C000000E01C000000E00E
E01C000000E01C000000E00E
E01C000000E01C000000E00E
E01C000000E01C000000E00E
E01C000000E01C000000E00E
E01C000000E01C000000E00E
E01C000000E01C000000E00E
E01C000000E01C000000E00E
E01C000000E01C000000E00E
E01C000000E01C000000E00E
E01C000000E01C000000E00E
E01C000000E01C000000E00E
E01C000000E01C000000E00E
E01C000000E01C000000E00E
E01C000000E01C000000E00E
E01C000000E01C000000E00E
E01C000000E01C000000E00E
E01C000000E01C000000E00E
E01C000000E01C000000E00E
E01C000000E01C000000E00E
E00C000000C00C000000C00E
E003FFFFFF8103FFFFFF000E
F0000000000780000000001E
7F00000000FFFC00000001FC
7FFFFFFFFFFFFFFFFFFFFFFC
3FFFFFFFFFFFFFFFFFFFFFF8
1FFFFFFFFFF87FFFFFFFFFF0
01FFFFFFFF8007FFFFFFFE00
ENDCHAR
STARTCHAR 0058
ENCODING 88
SWIDTH 1153 0
DWIDTH 60 0
BBX 54 40 3 -1
BITMAP
FFFC000000FFFC
E01C000000E01C
E01C000000E01C
E01C000000E01C
E01C000000E01C
E01C000000E01C
E01C000000E01C
E01C000000E01C
E01C000000E01C
E01C000000E01C
E01C000000E01C
E01C000000E01C
E01C000000E01C
E01C000000E01C
E01C000000E01C
F00E000000C01C
FC03FFFFFF807C
FF0000000001FC
7FE00000001FF8
3F8000000007F0
1C03FFFFFF8060
300FFFFFFFC038
601FFFFFFFE01C
E01FFFFFFFE01C
E01E000001E01C
E01C000000E01C
E01C000000E01C
E01C000000E01C
E01C000000E01C
E01C000000E01C
E01C000000E01C
E01C000000E01C
E01C000000E01C
E01C000000E01C
E01C000000E01C
E01C000000E01C
FFFC000000FFFC
FFFC000000FFFC
FFFC000000FFFC
FFFC000000FFFC
ENDCHAR
STARTCHAR 0059
ENCODING 89
SWIDTH 1153 0
DWIDTH 60 0
BBX 54 40 3 -1
BITMAP
FFFC000000FFFC
E01C000000E01C
E01C000000E01C
E01C000000E01C
E01C000000E01C
E01C000000E01C
E01C000000E01C
E01C000000E01C
E01C000000E01C
E01C000000E01C
E01C000000E01C
E01C000000E01C
E01C000000E01C
E01C000000E01C
E01C000000E01C
E00E000000C01C
E003FFFFFF801C
F000000000003C
FC0000000000FC
7FFFFE01FFFFF8
7FFFFE01FFFFF8
3FFFFE01FFFFF0
07FFFE01FFFF80
00000E01C00000
00000E01C00000
00000E01C00000
00000E01C00000
00000E01C00000
00000E01C00000
00000E01C00000
00000E01C00000
00000E01C00000
00000E01C00000
00000E01C00000
00000E01C00000
00000E01C00000
00000FFFC00000
00000FFFC00000
00000FFFC00000
00000FFFC00000
ENDCHAR
STARTCHAR 005A
ENCODING 90
SWIDTH 1153 0
DWIDTH 60 0
BBX 54 40 3 -1
BITMAP
01FFFFFFFFFFFC
1E00000000001C
3000000000001C
6003FFFFFFE01C
600FFFFFFFC01C
E00FFFFFFF003C
E01FFFFFFE007C
E01E00001800FC
FFFC00007003FC
FFFC0000E007F0
FFFC0003801FE0
FFFC0007003F80
0000000C007F00
0000003801FC00
0000007003F800
000001C00FF000
000003801FC000
000006003F8000
00001C00FE0000
00003001FC0000
0000E007F00000
0001C00FE00000
0007001FC00000
000E007F000000
001800FE000000
007003F8000000
00C007F0000000
03800FC0000000
07003F8000FFFC
0C007F0000E01C
3801FC0000E01C
6003F80000E01C
E007E00001C01C
E01FFFFFFF001C
E000000000003C
E00000000001FC
FFFFFFFFFFFFF8
FFFFFFFFFFFFF0
FFFFFFFFFFFFE0
FFFFFFFFFFFC00
ENDCHAR
STARTCHAR 005B
ENCODING 91
SWIDTH 653 0
DWIDTH 34 0
BBX 28 40 3 -1
BITMAP
01FFFFF0
1E000070
30000070
6003FFF0
600FFFF0
E01FFFF0
E01FFFF0
E01E0000
E01C0000
E01C0000
E01C0000
E01C0000
E01C0000
E01C0000
E01C0000
E01C0000
E01C0000
E01C0000
E01C0000
E01C0000
E01C0000
E01C0000
E01C0000
E01C0000
E01C0000
E01C0000
E01C0000
E01C0000
E01C0000
E01C0000
E01C0000
E01C0000
E00E0000
E003FFF0
F0000070
7F000070
7FFFFFF0
3FFFFFF0
1FFFFFF0
00FFFFF0
ENDCHAR
STARTCHAR 005C
ENCODING 92
SWIDTH 923 0
DWIDTH 48 0
BBX 54 40 -3 -1
BITMAP
FFFF8000000000
7C00C000000000
3E006000000000
1F003000000000
0F801800000000
07C00C00000000
03E00E00000000
01F00700000000
00F80300000000
007C0180000000
003E00C0000000
001F0060000000
000F8030000000
0007C018000000
0007E00C000000
0003E006000000
0001F003000000
0000F801800000
00007C00C00000
00003E00600000
00001F00300000
00000F80180000
000007C00C0000
000003E0060000
000001F0070000
000000F8038000
0000007C018000
0000003E00C000
0000003F006000
0000001F003000
0000000F801800
00000007C00C00
00000003E00600
00000001F00300
00000000F80180
000000007C00C0
000000003FFFE0
000000001FFFF0
000000000FFFF8
0000000007FFFC
ENDCHAR
STARTCHAR 005D
ENCODING 93
SWIDTH 653 0
DWIDTH 34 0
BBX 28 40 3 -1
BITMAP
FFFFF800
E0000780
E00000C0
FFFC0060
FFFF0070
FFFF8070
FFFF8070
00078070
00038070
00038070
00038070
00038070
00038070
00038070
00038070
00038070
00038070
00038070
00038070
00038070
00038070
00038070
00038070
00038070
00038070
00038070
00038070
00038070
00038070
00038070
00038070
00038070
00070070
FFFC0070
E00000F0
E0000FE0
FFFFFFE0
FFFFFFC0
FFFFFF80
FFFFF000
ENDCHAR
STARTCHAR 005E
ENCODING 94
SWIDTH 1807 0
DWIDTH 94 0
BBX 0 0 0 0
BITMAP
ENDCHAR
STARTCHAR 005F
ENCODING 95
SWIDTH 1807 0
DWIDTH 94 0
BBX 89 6 3 -10
BITMAP
FFFFFFFFFFFFFFFFFFFFFF80
FFFFFFFFFFFFFFFFFFFFFF80
FFFFFFFFFFFFFFFFFFFFFF80
FFFFFFFFFFFFFFFFFFFFFF80
FFFFFFFFFFFFFFFFFFFFFF80
FFFFFFFFFFFFFFFFFFFFFF80
ENDCHAR
STARTCHAR 0060
ENCODING 96
SWIDTH 1807 0
DWIDTH 94 0
BBX 0 0 0 0
BITMAP
ENDCHAR
STARTCHAR 0061
ENCODING 97
SWIDTH 1153 0
DWIDTH 60 0
BBX 54 40 3 -1
BITMAP
01FFFFFFFFFE00
1E0000000001E0
30000000000030
6003FFFFFF0018
600FFFFFFFC01C
E01FFFFFFFE01C
E01FFFFFFFE01C
E01E000001E01C
FFFC000000E01C
FFFC000000E01C
FFFC000000E01C
FFFC000000E01C
0000000000E01C
0000000000E01C
0000000000E01C
0000000000E01C
0000000000E01C
07FFFFFFFFE01C
3C00000000001C
7000000000001C
6007FFFFFFE01C
E00FFFFFFFE01C
E01FFFFFFFE01C
E01FFFFFFFE01C
E01C000000E01C
E01C000000E01C
E01C000000E01C
E01C000000E01C
E01C000000E01C
E01C000000E01C
E01C000000E01C
E01C000000E01C
E00E000001C01C
E003FFFFFF001C
F000000000003C
7F0000000001FC
7FFFFFFFFFFFF8
3FFFFFFFFFFFF0
1FFFFFFFFFFFE0
01FFFFFFFFFC00
ENDCHAR
STARTCHAR 0062
ENCODING 98
SWIDTH 1153 0
DWIDTH 60 0
BBX 54 40 3 -1
BITMAP
FFFC0000000000
E01C0000000000
E01C0000000000
E01C0000000000
E01C0000000000
E01C0000000000
E01C0000000000
E01C0000000000
E01C0000000000
E01C0000000000
E01C0000000000
E01C0000000000
E01C0000000000
E01C0000000000
E01C0000000000
E00E0000000000
F803FFFFFFFE00
FF8000000001E0
7FFC0000000030
3F800000000018
1803FFFFFF001C
600FFFFFFFC01C
601FFFFFFFE01C
E01FFFFFFFE01C
E01E000001E01C
E01C000000E01C
E01C000000E01C
E01C000000E01C
E01C000000E01C
E01C000000E01C
E01C000000E01C
E01C000000E01C
E00E000001C01C
E003FFFFFF001C
F000000000003C
FF0000000001FC
7FFFFFFFFFFFF8
3FFFFFFFFFFFF0
1FFFFFFFFFFFE0
01FFFFFFFFFC00
ENDCHAR
STARTCHAR 0063
ENCODING 99
SWIDTH 1153 0
DWIDTH 60 0
BBX 54 40 3 -1
BITMAP
01FFFFFFFFFE00
1E0000000001E0
30000000000030
6003FFFFFF8018
600FFFFFFFC01C
E01FFFFFFFE01C
E01FFFFFFFE01C
E01E000001E01C
E01C000000FFFC
E01C000000FFFC
E01C000000FFFC
E01C000000FFFC
E01C0000000000
E01C0000000000
E01C0000000000
E01C0000000000
E01C0000000000
E01C0000000000
E01C0000000000
E01C0000000000
E01C0000000000
E01C0000000000
E01C0000000000
E01C0000000000
E01C0000000000
E01C0000000000
E01C0000000000
E01C0000000000
E01C000000FFFC
E01C000000E01C
E01C000000E01C
E01C000000E01C
E00E000000C01C
E003FFFFFF801C
F000000000003C
7F0000000001FC
7FFFFFFFFFFFF8
3FFFFFFFFFFFF0
1FFFFFFFFFFFE0
00FFFFFFFFFC00
ENDCHAR
STARTCHAR 0064
ENCODING 100
SWIDTH 1153 0
DWIDTH 60 0
BBX 54 40 3 -1
BITMAP
0000000000FFFC
0000000000E01C
0000000000E01C
0000000000E01C
0000000000E01C
0000000000E01C
0000000000E01C
0000000000E01C
0000000000E01C
0000000000E01C
0000000000E01C
0000000000E01C
0000000000E01C
0000000000E01C
0000000000E01C
0000000000C01C
01FFFFFFFF007C
1E0000000007FC
3000000000FFF8
60000000000FF0
6003FFFFFF0060
E00FFFFFFFC018
E01FFFFFFFE01C
E01FFFFFFFE01C
E01E000001E01C
E01C000000E01C
E01C000000E01C
E01C000000E01C
E01C000000E01C
E01C000000E01C
E01C000000E01C
E01C000000E01C
E00E000001C01C
E003FFFFFF001C
F000000000003C
7F0000000001FC
7FFFFFFFFFFFF8
3FFFFFFFFFFFF0
1FFFFFFFFFFFE0
01FFFFFFFFFC00
ENDCHAR
STARTCHAR 0065
ENCODING 101
SWIDTH 1153 0
DWIDTH 60 0
BBX 54 40 3 -1
BITMAP
01FFFFFFFFFE00
1E0000000001E0
30000000000030
6003FFFFFF0018
600FFFFFFFC01C
E01FFFFFFFE01C
E01FFFFFFFE01C
E01F80000FE01C
E01C000000E01C
E01C000000E01C
E01C000000E01C
E01C000000E01C
E01C000000E01C
E01C000000E01C
E01C000000E01C
E01C000000C01C
E01FFFFFFF801C
E000000000003C
E00000000000FC
E01FFFFFFFFFF8
E01FFFFFFFFFF8
E01FFFFFFFFFF0
E01FFFFFFFFF00
E01C0000000000
E01C0000000000
E01C0000000000
E01C0000000000
E01C0000000000
E01C000000FFFC
E01C000000E01C
E01C000000E01C
E01C000000E01C
E00E000001C01C
E003FFFFFF001C
F000000000003C
7F0000000001FC
7FFFFFFFFFFFF8
3FFFFFFFFFFFF0
1FFFFFFFFFFFE0
01FFFFFFFFFC00
ENDCHAR
STARTCHAR 0066
ENCODING 102
SWIDTH 1153 0
DWIDTH 60 0
BBX 54 40 3 -1
BITMAP
01FFFFFFFFFE00
1E0000000001E0
30000000000030
6003FFFFFF0018
600FFFFFFFC01C
E01FFFFFFFE01C
E01FFFFFFFE01C
E01E000001E01C
E01C000000FFFC
E01C000000FFFC
E01C000000FFFC
E01C000000FFFC
E01C0000000000
E01C0000000000
E01C0000000000
E00E0000000000
F807FFFFF80000
FF000000380000
7FF00000380000
3FC80000380000
1807FFFFF80000
600FFFFFF80000
601FFFFFF80000
E01FFFFFF80000
E01C0000000000
E01C0000000000
E01C0000000000
E01C0000000000
E01C0000000000
E01C0000000000
E01C0000000000
E01C0000000000
E01C0000000000
E01C0000000000
E01C0000000000
E01C0000000000
FFFC0000000000
FFFC0000000000
FFFC0000000000
FFFC0000000000
ENDCHAR
STARTCHAR 0067
ENCODING 103
SWIDTH 1153 0
DWIDTH 60 0
BBX 54 40 3 0
BITMAP
03FFFFFFFFFF80
1C0000000000E0
30000000000038
6003FFFFFF8018
E00FFFFFFFC01C
E01FFFFFFFE01C
E01FFFFFFFE01C
E01E000001E01C
E01C000000FFFC
E01C000000FFFC
E01C000000FFFC
E01C000000FFFC
E01C0000000000
E01C0000000000
E01C0000000000
E01C0000000000
E01C0000000000
E01C1FFFFFFF80
E01C1C000001F0
E01C1C00000038
E01C1FFFFF0018
E01C1FFFFFC01C
E01C1FFFFFE01C
E01C1FFFFFE01C
E01C000001E01C
E01C000000E01C
E01C000000E01C
E01C000000E01C
E01C000000E01C
E01C000000E01C
E01C000000E01C
E01C000000E01C
E00F800003C01C
E001FFFFFE001C
F000000000003C
7F0000000001FC
7FFFFFFFFFFFF8
3FFFFFFFFFFFF0
1FFFFFFFFFFFE0
00FFFFFFFFFC00
ENDCHAR
STARTCHAR 0068
ENCODING 104
SWIDTH 1153 0
DWIDTH 60 0
BBX 54 40 3 -1
BITMAP
FFFC0000000000
E01C0000000000
E01C0000000000
E01C0000000000
E01C0000000000
E01C0000000000
E01C0000000000
E01C0000000000
E01C0000000000
E01C0000000000
E01C0000000000
E01C0000000000
E01C0000000000
E01C0000000000
E01C0000000000
F00E0000000000
FC03FFFFFFFC00
FF8000000003E0
7FFC0000000030
3F000000000018
1803FFFFFF801C
600FFFFFFFC01C
601FFFFFFFE01C
E01FFFFFFFE01C
E01E000001E01C
E01C000000E01C
E01C000000E01C
E01C000000E01C
E01C000000E01C
E01C000000E01C
E01C000000E01C
E01C000000E01C
E01C000000E01C
E01C000000E01C
E01C000000E01C
E01C000000E01C
FFFC000000FFFC
FFFC000000FFFC
FFFC000000FFFC
FFFC000000FFFC
ENDCHAR
STARTCHAR 0069
ENCODING 105
SWIDTH 365 0
DWIDTH 19 0
BBX 14 40 3 -1
BITMAP
1FF0
6018
E01C
E01C
E01C
FFFC
FFFC
7FF8
3FF0
0000
0000
FFFC
E01C
E01C
E01C
E01C
E01C
E01C
E01C
E01C
E01C
E01C
E01C
E01C
E01C
E01C
E01C
E01C
E01C
E01C
E01C
E01C
E01C
E01C
E01C
E01C
FFFC
FFFC
FFFC
FFFC
ENDCHAR
STARTCHAR 006A
ENCODING 106
SWIDTH 1153 0
DWIDTH 60 0
BBX 54 40 3 -1
BITMAP
00000000001FF0
00000000006018
0000000000E01C
0000000000E01C
0000000000E01C
0000000000FFFC
0000000000FFFC
00000000007FF8
00000000003FF0
00000000000000
00000000000000
00000000000000
0000000000FFFC
0000000000E01C
0000000000E01C
0000000000E01C
0000000000E01C
0000000000E01C
0000000000E01C
0000000000E01C
0000000000E01C
0000000000E01C
0000000000E01C
0000000000E01C
0000000000E01C
0000000000E01C
0000000000E01C
0000000000E01C
FFFC000000E01C
E01C000000E01C
E01C000000E01C
E01C000000E01C
E00E000000C01C
E003FFFFFF001C
F000000000003C
FE0000000001FC
7FFFFFFFFFFFF8
3FFFFFFFFFFFF0
1FFFFFFFFFFFE0
01FFFFFFFFFC00
ENDCHAR
STARTCHAR 006B
ENCODING 107
SWIDTH 1153 0
DWIDTH 60 0
BBX 54 40 3 -1
BITMAP
FFFC000000FFFC
E01C000000E01C
E01C000000E01C
E01C000000E01C
E01C000000E01C
E01C000000E01C
E01C000000E01C
E01C000000E01C
E01C000000E01C
E01C000000E01C
E01C000000E01C
E01C000000E01C
E01C000000E01C
E01C000000E01C
E01C000000E01C
E01C000000C01C
E01FFFFFFF803C
E00000000001FC
E0000000007FF8
E00000000003F8
E01FFFFFFF8030
E01FFFFFFFC018
E01FFFFFFFE01C
E01FFFFFFFE01C
E01C000001E01C
E01C000000E01C
E01C000000E01C
E01C000000E01C
E01C000000E01C
E01C000000E01C
E01C000000E01C
E01C000000E01C
E01C000000E01C
E01C000000E01C
E01C000000E01C
E01C000000E01C
FFFC000000FFFC
FFFC000000FFFC
FFFC000000FFFC
FFFC000000FFFC
ENDCHAR
STARTCHAR 006C
ENCODING 108
SWIDTH 1153 0
DWIDTH 60 0
BBX 54 40 3 -1
BITMAP
FFFC0000000000
E01C0000000000
E01C0000000000
E01C0000000000
E01C0000000000
E01C0000000000
E01C0000000000
E01C0000000000
E01C0000000000
E01C0000000000
E01C0000000000
E01C0000000000
E01C0000000000
E01C0000000000
E01C0000000000
E01C0000000000
E01C0000000000
E01C0000000000
E01C0000000000
E01C0000000000
E01C0000000000
E01C0000000000
E01C0000000000
E01C0000000000
E01C0000000000
E01C0000000000
E01C0000000000
E01C0000000000
E01C000000FFFC
E01C000000E01C
E01C000000E01C
E01C000000E01C
E00E000000C01C
E003FFFFFF001C
F000000000003C
7F0000000001FC
7FFFFFFFFFFFF8
3FFFFFFFFFFFF0
1FFFFFFFFFFFE0
00FFFFFFFFFC00
ENDCHAR
STARTCHAR 006D
ENCODING 109
SWIDTH 1923 0
DWIDTH 100 0
BBX 95 40 3 -1
BITMAP
01FFFFFFFF8007FFFFFFFF00
1E00000000703800000000F0
30000000000CC00000000018
6003FFFFFF8303FFFFFF800C
600FFFFFFFC00FFFFFFFC00C
E01FFFFFFFE01FFFFFFFE00E
E01FFFFFFFE01FFFFFFFE00E
E01E000001E01E000001E00E
E01C000000E01C000000E00E
E01C000000E01C000000E00E
E01C000000E01C000000E00E
E01C000000E01C000000E00E
E01C000000E01C000000E00E
E01C000000E01C000000E00E
E01C000000E01C000000E00E
E01C000000E01C000000E00E
E01C000000E01C000000E00E
E01C000000E01C000000E00E
E01C000000E01C000000E00E
E01C000000E01C000000E00E
E01C000000E01C000000E00E
E01C000000E01C000000E00E
E01C000000E01C000000E00E
E01C000000E01C000000E00E
E01C000000E01C000000E00E
E01C000000E01C000000E00E
E01C000000E01C000000E00E
E01C000000E01C000000E00E
E01C000000E01C000000E00E
E01C000000E01C000000E00E
E01C000000E01C000000E00E
E01C000000E01C000000E00E
E01C000000E01C000000E00E
E01C000000E01C000000E00E
E01C000000E01C000000E00E
E01C000000E01C000000E00E
FFFC000000FFFC000000FFFE
FFFC000000FFFC000000FFFE
FFFC000000FFFC000000FFFE
FFFC000000FFFC000000FFFE
ENDCHAR
STARTCHAR 006E
ENCODING 110
SWIDTH 1153 0
DWIDTH 60 0
BBX 54 40 3 -1
BITMAP
01FFFFFFFFFE00
1E0000000001E0
30000000000030
6003FFFFFF8018
600FFFFFFFC01C
E01FFFFFFFE01C
E01FFFFFFFE01C
E01E000001E01C
E01C000000E01C
E01C000000E01C
E01C000000E01C
E01C000000E01C
E01C000000E01C
E01C000000E01C
E01C000000E01C
E01C000000E01C
E01C000000E01C
E01C000000E01C
E01C000000E01C
E01C000000E01C
E01C000000E01C
E01C000000E01C
E01C000000E01C
E01C000000E01C
E01C000000E01C
E01C000000E01C
E01C000000E01C
E01C000000E01C
E01C000000E01C
E01C000000E01C
E01C000000E01C
E01C000000E01C
E01C000000E01C
E01C000000E01C
E01C000000E01C
E01C000000E01C
FFFC000000FFFC
FFFC000000FFFC
FFFC000000FFFC
FFFC000000FFFC
ENDCHAR
STARTCHAR 006F
ENCODING 111
SWIDTH 1153 0
DWIDTH 60 0
BBX 54 40 3 -1
BITMAP
01FFFFFFFFFE00
1E0000000001E0
30000000000030
6003FFFFFF0018
600FFFFFFFC01C
E01FFFFFFFE01C
E01FFFFFFFE01C
E01E000001E01C
E01C000000E01C
E01C000000E01C
E01C000000E01C
E01C000000E01C
E01C000000E01C
E01C000000E01C
E01C000000E01C
E01C000000E01C
E01C000000E01C
E01C000000E01C
E01C000000E01C
E01C000000E01C
E01C000000E01C
E01C000000E01C
E01C000000E01C
E01C000000E01C
E01C000000E01C
E01C000000E01C
E01C000000E01C
E01C000000E01C
E01C000000E01C
E01C000000E01C
E01C000000E01C
E01C000000E01C
E00E000001C01C
E003FFFFFF001C
F000000000003C
7F0000000001FC
7FFFFFFFFFFFF8
3FFFFFFFFFFFF0
1FFFFFFFFFFFE0
00FFFFFFFFFC00
ENDCHAR
STARTCHAR 0070
ENCODING 112
SWIDTH 1153 0
DWIDTH 60 0
BBX 54 40 3 -1
BITMAP
01FFFFFFFFFE00
1E0000000001E0
30000000000030
6003FFFFFF0018
600FFFFFFFC01C
E01FFFFFFFE01C
E01FFFFFFFE01C
E01E000001E01C
E01C000000E01C
E01C000000E01C
E01C000000E01C
E01C000000E01C
E01C000000E01C
E01C000000E01C
E01C000000E01C
E00E000001C01C
F803FFFFFF801C
FF80000000001C
7FFC000000003C
3F8000000000F8
1803FFFFFFFFF8
600FFFFFFFFFF0
601FFFFFFFFFE0
E01FFFFFFFFC00
E01C0000000000
E01C0000000000
E01C0000000000
E01C0000000000
E01C0000000000
E01C0000000000
E01C0000000000
E01C0000000000
E01C0000000000
E01C0000000000
E01C0000000000
E01C0000000000
FFFC0000000000
FFFC0000000000
FFFC0000000000
FFFC0000000000
ENDCHAR
STARTCHAR 0071
ENCODING 113
SWIDTH 1153 0
DWIDTH 60 0
BBX 55 40 3 -1
BITMAP
01FFFFFFFFFF00
1E0000000000F0
30000000000018
6003FFFFFF000C
600FFFFFFFC00C
E01FFFFFFFE00E
E01FFFFFFFE00E
E01E000001E00E
E01C000000E00E
E01C000000E00E
E01C000000E00E
E01C000000E00E
E01C000000E00E
E01C000000E00E
E01C000000E00E
E00E000000C00E
E003FFFFFF803E
E00000000007FE
F000000000FFFC
7E0000000007F8
7FFFFFFFFF8070
3FFFFFFFFFC018
1FFFFFFFFFE00C
00FFFFFFFFE00E
0000000001E00E
0000000000E00E
0000000000E00E
0000000000E00E
0000000000E00E
0000000000E00E
0000000000E00E
0000000000E00E
0000000000E00E
0000000000E00E
0000000000E00E
0000000000E00E
0000000000FFFE
0000000000FFFE
0000000000FFFE
0000000000FFFE
ENDCHAR
STARTCHAR 0072
ENCODING 114
SWIDTH 1153 0
DWIDTH 60 0
BBX 54 40 3 -1
BITMAP
01FFFFFFFFFE00
1E0000000001E0
30000000000030
6003FFFFFF0018
600FFFFFFFC01C
E01FFFFFFFC01C
E01FFFFFFFE01C
E01E000001E01C
E01C000000FFFC
E01C000000FFFC
E01C000000FFFC
E01C000000FFFC
E01C0000000000
E01C0000000000
E01C0000000000
E01C0000000000
E01C0000000000
E01C0000000000
E01C0000000000
E01C0000000000
E01C0000000000
E01C0000000000
E01C0000000000
E01C0000000000
E01C0000000000
E01C0000000000
E01C0000000000
E01C0000000000
E01C0000000000
E01C0000000000
E01C0000000000
E01C0000000000
E01C0000000000
E01C0000000000
E01C0000000000
E01C0000000000
FFFC0000000000
FFFC0000000000
FFFC0000000000
FFFC0000000000
ENDCHAR
STARTCHAR 0073
ENCODING 115
SWIDTH 1153 0
DWIDTH 60 0
BBX 54 40 3 0
BITMAP
03FFFFFFFFFF80
1C0000000000E0
30000000000038
6003FFFFFF8018
E00FFFFFFFC01C
E01FFFFFFFE01C
E01FFFFFFFE01C
E01E000001E01C
E01C000000FFFC
E01C000000FFFC
E01C000000FFFC
E01C000000FFFC
E01C0000000000
E01C0000000000
E01C0000000000
E00C0000000000
E00F0000000000
E003FFFFFFFF80
F00000000001F0
7E000000000038
7FFFFFFFFF0018
3FFFFFFFFFC01C
1FFFFFFFFFE01C
00FFFFFFFFE01C
0000000001E01C
0000000000E01C
0000000000E01C
0000000000E01C
FFFC000000E01C
E01C000000E01C
E01C000000E01C
E01C000000E01C
E00F800003C01C
E001FFFFFE001C
F000000000003C
FF0000000001FC
7FFFFFFFFFFFF8
3FFFFFFFFFFFF0
1FFFFFFFFFFFE0
01FFFFFFFFFC00
ENDCHAR
STARTCHAR 0074
ENCODING 116
SWIDTH 1153 0
DWIDTH 60 0
BBX 54 40 3 -1
BITMAP
FFFC0000000000
E01C0000000000
E01C0000000000
E01C0000000000
E01C0000000000
E01C0000000000
E01C0000000000
E01C0000000000
E01C0000000000
E01C0000000000
E01C0000000000
E01C0000000000
E01C0000000000
E01C0000000000
E01C0000000000
E00E0000000000
F807FFFFF80000
FF800000380000
7FF80000380000
3F000000380000
1807FFFFF80000
600FFFFFF80000
601FFFFFF80000
E01FFFFFF80000
E01C0000000000
E01C0000000000
E01C0000000000
E01C0000000000
E01C000000FFFC
E01C000000E01C
E01C000000E01C
E01C000000E01C
E00E000000C01C
E003FFFFFF001C
F000000000003C
FF0000000001FC
7FFFFFFFFFFFF8
3FFFFFFFFFFFF0
1FFFFFFFFFFFE0
01FFFFFFFFFC00
ENDCHAR
STARTCHAR 0075
ENCODING 117
SWIDTH 1153 0
DWIDTH 60 0
BBX 54 40 3 -1
BITMAP
FFFC000000FFFC
E01C000000E01C
E01C000000E01C
E01C000000E01C
E01C000000E01C
E01C000000E01C
E01C000000E01C
E01C000000E01C
E01C000000E01C
E01C000000E01C
E01C000000E01C
E01C000000E01C
E01C000000E01C
E01C000000E01C
E01C000000E01C
E01C000000E01C
E01C000000E01C
E01C000000E01C
E01C000000E01C
E01C000000E01C
E01C000000E01C
E01C000000E01C
E01C000000E01C
E01C000000E01C
E01C000000E01C
E01C000000E01C
E01C000000E01C
E01C000000E01C
E01C000000E01C
E01C000000E01C
E01C000000E01C
E01C000000E01C
E00E000001C01C
E003FFFFFF001C
F000000000003C
7F0000000001FC
7FFFFFFFFFFFF8
3FFFFFFFFFFFF0
1FFFFFFFFFFFE0
01FFFFFFFFFC00
ENDCHAR
STARTCHAR 0076
ENCODING 118
SWIDTH 1153 0
DWIDTH 60 0
BBX 56 40 2 -1
BITMAP
FFFF000000FFFF
7801800001801E
7801800001801E
3C00C00003803C
3C00E00003003C
1E006000070078
0F007000060078
0F0030000600F0
078018000C00F0
078018000C01E0
03C00C001801C0
03C00C001803C0
01E00600300380
00F00600300780
00F00300600700
00780300600F00
00780180C00E00
003C01C0C01E00
003C00C1C01C00
001E00E1803C00
000F0063803800
000F0073007800
0007803300F000
0007801E00F000
0003C01E01E000
0003C00C01E000
0001E00C03C000
0000F00003C000
0000F000078000
00007800078000
000078000F0000
00003C000F0000
00001C001E0000
00001E001E0000
00000F003C0000
00000F00380000
000007FFF80000
000007FFF00000
000003FFF00000
000001FFE00000
ENDCHAR
STARTCHAR 0077
ENCODING 119
SWIDTH 1923 0
DWIDTH 100 0
BBX 95 40 3 -1
BITMAP
FFFC000000FFFC000000FFFE
E01C000000E01C000000E00E
E01C000000E01C000000E00E
E01C000000E01C000000E00E
E01C000000E01C000000E00E
E01C000000E01C000000E00E
E01C000000E01C000000E00E
E01C000000E01C000000E00E
E01C000000E01C000000E00E
E01C000000E01C000000E00E
E01C000000E01C000000E00E
E01C000000E01C000000E00E
E01C000000E01C000000E00E
E01C000000E01C000000E00E
E01C000000E01C000000E00E
E01C000000E01C000000E00E
E01C000000E01C000000E00E
E01C000000E01C000000E00E
E01C000000E01C000000E00E
E01C000000E01C000000E00E
E01C000000E01C000000E00E
E01C000000E01C000000E00E
E01C000000E01C000000E00E
E01C000000E01C000000E00E
E01C000000E01C000000E00E
E01C000000E01C000000E00E
E01C000000E01C000000E00E
E01C000000E01C000000E00E
E01C000000E01C000000E00E
E01C000000E01C000000E00E
E01C000000E01C000000E00E
E01C000000E01C000000E00E
E00C000000C00C000000C00E
E003FFFFFF8103FFFFFF000E
F0000000000780000000001E
7F00000000FFFC00000001FC
7FFFFFFFFFFFFFFFFFFFFFFC
3FFFFFFFFFFFFFFFFFFFFFF8
1FFFFFFFFFF87FFFFFFFFFF0
01FFFFFFFF8007FFFFFFFE00
ENDCHAR
STARTCHAR 0078
ENCODING 120
SWIDTH 1153 0
DWIDTH 60 0
BBX 54 40 3 -1
BITMAP
FFFC000000FFFC
E01C000000E01C
E01C000000E01C
E01C000000E01C
E01C000000E01C
E01C000000E01C
E01C000000E01C
E01C000000E01C
E01C000000E01C
E01C000000E01C
E01C000000E01C
E01C000000E01C
E01C000000E01C
E01C000000E01C
E01C000000E01C
F00E000000C01C
FC03FFFFFF807C
FF0000000001FC
7FE00000001FF8
3F8000000007F0
1C03FFFFFF8060
300FFFFFFFC038
601FFFFFFFE01C
E01FFFFFFFE01C
E01E000001E01C
E01C000000E01C
E01C000000E01C
E01C000000E01C
E01C000000E01C
E01C000000E01C
E01C000000E01C
E01C000000E01C
E01C000000E01C
E01C000000E01C
E01C000000E01C
E01C000000E01C
FFFC000000FFFC
FFFC000000FFFC
FFFC000000FFFC
FFFC000000FFFC
ENDCHAR
STARTCHAR 0079
ENCODING 121
SWIDTH 1153 0
DWIDTH 60 0
BBX 54 40 3 -1
BITMAP
FFFC000000FFFC
E01C000000E01C
E01C000000E01C
E01C000000E01C
E01C000000E01C
E01C000000E01C
E01C000000E01C
E01C000000E01C
E01C000000E01C
E01C000000E01C
E01C000000E01C
E01C000000E01C
E01C000000E01C
E01C000000E01C
E01C000000E01C
E00E000000C01C
E003FFFFFF807C
E00000000003FC
F0000000003FF8
7E000000005FF0
7FFFFFFFFF81C0
3FFFFFFFFFC030
1FFFFFFFFFE018
00FFFFFFFFE01C
0000000001E01C
0000000000E01C
0000000000E01C
0000000000E01C
FFFC000000E01C
E01C000000E01C
E01C000000E01C
E01C000000E01C
E00E000000C01C
E003FFFFFF001C
F000000000003C
FE0000000001FC
7FFFFFFFFFFFF8
3FFFFFFFFFFFF0
1FFFFFFFFFFFE0
01FFFFFFFFFC00
ENDCHAR
STARTCHAR 007A
ENCODING 122
SWIDTH 1153 0
DWIDTH 60 0
BBX 54 40 3 -1
BITMAP
01FFFFFFFFFFFC
1E00000000001C
3000000000001C
6003FFFFFFE01C
600FFFFFFFC01C
E00FFFFFFF003C
E01FFFFFFE007C
E01E00001800FC
FFFC00007003FC
FFFC0000E007F0
FFFC0003801FE0
FFFC0007003F80
0000000C007F00
0000003801FC00
0000007003F800
000001C00FF000
000003801FC000
000006003F8000
00001C00FE0000
00003001FC0000
0000E007F00000
0001C00FE00000
0007001FC00000
000E007F000000
001800FE000000
007003F8000000
00C007F0000000
03800FC0000000
07003F8000FFFC
0C007F0000E01C
3801FC0000E01C
6003F80000E01C
E007E00001C01C
E01FFFFFFF001C
E000000000003C
E00000000001FC
FFFFFFFFFFFFF8
FFFFFFFFFFFFF0
FFFFFFFFFFFFE0
FFFFFFFFFFFC00
ENDCHAR
STARTCHAR 007B
ENCODING 123
SWIDTH 653 0
DWIDTH 34 0
BBX 28 40 3 -1
BITMAP
01FFFFF0
1E000070
30000070
6003FFF0
600FFFF0
E01FFFF0
E01FFFF0
E01E0000
E01C0000
E01C0000
E01C0000
E01C0000
E01C0000
E01C0000
E01C0000
E01C0000
E01C0000
E01C0000
E01C0000
E01C0000
E01C0000
E01C0000
E01C0000
E01C0000
E01C0000
E01C0000
E01C0000
E01C0000
E01C0000
E01C0000
E01C0000
E01C0000
E00E0000
E003FFF0
F0000070
7F000070
7FFFFFF0
3FFFFFF0
1FFFFFF0
00FFFFF0
ENDCHAR
STARTCHAR 007C
ENCODING 124
SWIDTH 230 0
DWIDTH 12 0
BBX 9 49 1 -10
BITMAP
FF80
FF80
FF80
E380
E380
E380
E380
E380
E380
E380
E380
E380
E380
E380
E380
E380
E380
E380
E380
E380
E380
E380
E380
E380
E380
E380
E380
E380
E380
E380
E380
E380
E380
E380
E380
E380
E380
E380
E380
E380
E380
E380
E380
E380
E380
E380
FF80
FF80
FF80
ENDCHAR
STARTCHAR 007D
ENCODING 125
SWIDTH 653 0
DWIDTH 34 0
BBX 28 40 3 -1
BITMAP
FFFFF800
E0000780
E00000C0
FFFC0060
FFFF0070
FFFF8070
FFFF8070
00078070
00038070
00038070
00038070
00038070
00038070
00038070
00038070
00038070
00038070
00038070
00038070
00038070
00038070
00038070
00038070
00038070
00038070
00038070
00038070
00038070
00038070
00038070
00038070
00038070
00070070
FFFC0070
E00000F0
E0000FE0
FFFFFFE0
FFFFFFC0
FFFFFF80
FFFFF000
ENDCHAR
STARTCHAR 007E
ENCODING 126
SWIDTH 1807 0
DWIDTH 94 0
BBX 0 0 0 0
BITMAP
ENDCHAR
STARTCHAR 2018
ENCODING 8216
SWIDTH 365 0
DWIDTH 19 0
BBX 14 13 2 26
BITMAP
3FF0
6018
E01C
E01C
E01C
E01C
F03C
F03C
7878
7FF8
3FF0
1FF0
0FC0
ENDCHAR
STARTCHAR 2019
ENCODING 8217
SWIDTH 365 0
DWIDTH 19 0
BBX 14 13 2 26
BITMAP
3FF0
6018
E01C
E01C
E01C
E01C
F03C
F03C
7878
7FF8
3FF0
1FF0
0FC0
ENDCHAR
STARTCHAR 201B
ENCODING 8219
SWIDTH 365 0
DWIDTH 19 0
BBX 14 13 2 26
BITMAP
3FF0
6018
E01C
E01C
E01C
E01C
F03C
F03C
7878
7FF8
3FF0
1FF0
0FC0
ENDCHAR
STARTCHAR 201C
ENCODING 8220
SWIDTH 711 0
DWIDTH 37 0
BBX 33 13 2 26
BITMAP
3FF007FC00
6018180300
E01C380380
E01C380380
E01C380380
E01C380380
F03C3C0780
F03C1C0700
78781E0F00
7FF81FFF00
3FF00FFE00
1FF007FC00
0FC003F800
ENDCHAR
STARTCHAR 201D
ENCODING 8221
SWIDTH 711 0
DWIDTH 37 0
BBX 33 13 2 26
BITMAP
3FF007FC00
6018180300
E01C380380
E01C380380
E01C380380
E01C380380
F03C3C0780
F03C1C0700
78781E0F00
7FF81FFF00
3FF00FFE00
1FF007FC00
0FC003F800
ENDCHAR
STARTCHAR 2026
ENCODING 8230
SWIDTH 1000 0
DWIDTH 52 0
BBX 48 8 2 0
BITMAP
3FF01FF81FFC
6018300C3006
E01C700E7007
E01C700E7807
FFFC7FFE7FFF
FFFC7FFE7FFF
7FF83FFC3FFE
3FF01FF80FF8
ENDCHAR
ENDFONT
